<mxfile host="app.diagrams.net" modified="2024-03-08T14:11:42.644Z" agent="Mozilla/5.0 (Macintosh; Intel Mac OS X 10_15_7) AppleWebKit/537.36 (KHTML, like Gecko) Chrome/122.0.0.0 Safari/537.36" version="24.0.2" etag="FnhybE_bY8cozAn7qUiO" type="github">
  <diagram name="Page-1" id="zMcUGmoj63D4CAwfrhqz">
    <mxGraphModel>
      <root>
        <mxCell id="0" />
        <mxCell id="1" parent="0" />
      </root>
    </mxGraphModel>
  </diagram>
</mxfile>
